<?xml version="1.0" encoding="UTF-8"?><svg id="Layer_3" xmlns="http://www.w3.org/2000/svg" viewBox="0 0 205.94 210"><rect y="18.02" width="72.34" height="191.98" rx="2" ry="2" fill="#fff"/><rect x="90.61" y="56.07" width="72.34" height="153.03" rx="2" ry="2" fill="#fff"/><path d="M147.95,30.7c5.06,2.27,20.12,10.25,28.64,27.84.33.68,1.28.69,1.62.02,9.13-17.92,20.49-25.4,27.19-28.34.71-.31.71-1.3.01-1.63-11.11-5.1-24.14-16.98-27.88-27.99-.25-.74-1.24-.84-1.63-.16-4.17,7.33-10.19,18.77-28.01,28.64-.65.36-.63,1.31.05,1.61Z" fill="#fff"/></svg>